<?xml version="1.0" encoding="UTF-8"?>
<svg id="Layer_1" data-name="Layer 1" xmlns="http://www.w3.org/2000/svg" viewBox="0 0 250 500">
  <defs>
    <style>
      .cls-1 {
        fill: none;
      }

      .cls-1, .cls-2, .cls-3, .cls-4 {
        stroke: #fff;
      }

      .cls-1, .cls-4 {
        stroke-miterlimit: 10;
      }

      .cls-2, .cls-3 {
        stroke-linecap: round;
        stroke-linejoin: round;
      }

      .cls-2, .cls-3, .cls-5, .cls-4 {
        fill: #fff;
      }

      .cls-3 {
        stroke-width: 3px;
      }

      .cls-5 {
        stroke-width: 0px;
      }
    </style>
  </defs>
  <g>
    <path class="cls-4" d="M66.14,254.87c0,.84-.68,1.53-1.53,1.53s-1.53-.68-1.53-1.53l-.03-53.5-21.04-27.02-.04-63.65h0c0-.85.68-1.53,1.53-1.53s1.53.68,1.53,1.53l.04,62.6,21.04,27.02.03,54.55h0Z"/>
    <path class="cls-4" d="M50.73,105c0,3.99-3.24,7.23-7.22,7.23s-7.23-3.24-7.23-7.22,3.24-7.22,7.22-7.23c3.99,0,7.23,3.24,7.23,7.22ZM39.34,105.01c0,2.3,1.87,4.16,4.17,4.16s4.17-1.87,4.17-4.17-1.87-4.16-4.17-4.16c-2.29,0-4.16,1.87-4.16,4.17Z"/>
    <path class="cls-4" d="M86.52,105.85h0c0,3.99-3.24,7.22-7.22,7.22s-7.23-3.24-7.23-7.21,3.24-7.23,7.22-7.23,7.22,3.24,7.22,7.22ZM75.13,105.86c0,2.3,1.87,4.16,4.17,4.16s4.16-1.86,4.16-4.16h1.53-1.53c0-2.3-1.87-4.17-4.17-4.17s-4.16,1.87-4.16,4.17Z"/>
    <path class="cls-4" d="M118.01,55.31h0c0,2.99-2.44,5.43-5.43,5.43-1.45,0-2.81-.56-3.84-1.59-1.03-1.03-1.59-2.39-1.59-3.85,0-3,2.44-5.43,5.43-5.43s5.43,2.44,5.44,5.43ZM109.44,55.31c0,.84.33,1.63.92,2.22.59.59,1.38.91,2.21.91,1.73,0,3.14-1.41,3.14-3.13,0-1.73-1.41-3.13-3.14-3.13s-3.13,1.4-3.13,3.13Z"/>
    <path class="cls-4" d="M80.89,215.43c0,.84-.68,1.53-1.53,1.53s-1.53-.68-1.53-1.53l-.06-103.88h0c0-.85.68-1.53,1.53-1.53s1.53.68,1.53,1.53l.06,103.88h0Z"/>
    <path class="cls-4" d="M114.13,95.96l-14.01,28.63.04,74.91h0c0,.84-.68,1.53-1.53,1.53s-1.53-.68-1.53-1.53l-.04-75.62,14-28.62-.02-34.69h0c0-.85.68-1.53,1.53-1.53s1.53.68,1.53,1.53l.02,35.4Z"/>
    <g>
      <path class="cls-4" d="M199.29,55.35h0s-.04,63.65-.04,63.65l-21.04,27.02-.03,53.5c0,.84-.68,1.53-1.53,1.53s-1.53-.69-1.53-1.53h0s.03-54.55.03-54.55l21.04-27.02.04-62.6c0-.84.69-1.53,1.53-1.53s1.53.69,1.53,1.53Z"/>
      <path class="cls-4" d="M204.99,49.65h0c0,3.99-3.24,7.23-7.22,7.23s-7.22-3.24-7.22-7.22,3.24-7.22,7.23-7.22c3.98,0,7.22,3.25,7.22,7.22ZM193.6,49.65c0,2.3,1.87,4.17,4.16,4.17s4.17-1.87,4.17-4.16h0c0-2.3-1.87-4.16-4.16-4.17-2.3,0-4.17,1.87-4.17,4.16Z"/>
      <path class="cls-4" d="M169.19,89.93h0c0,3.99-3.24,7.22-7.23,7.22s-7.22-3.24-7.22-7.22,3.24-7.23,7.22-7.23c1.93,0,3.74.75,5.11,2.12,1.37,1.36,2.12,3.18,2.12,5.1ZM157.8,89.93c0,2.3,1.87,4.16,4.16,4.16s4.17-1.86,4.17-4.15h0c0-1.12-.43-2.17-1.22-2.95-.79-.79-1.83-1.22-2.95-1.22-2.29,0-4.16,1.87-4.16,4.16Z"/>
      <path class="cls-4" d="M135.92,55.31c0,1.93-.75,3.75-2.12,5.11-1.36,1.36-3.18,2.11-5.11,2.11-3.98,0-7.22-3.25-7.22-7.22,0-3.98,3.25-7.22,7.23-7.22s7.22,3.24,7.22,7.22ZM124.53,55.31c0,2.29,1.87,4.16,4.17,4.16,1.11,0,2.15-.43,2.94-1.21.79-.79,1.22-1.84,1.22-2.95,0-2.3-1.87-4.16-4.16-4.16s-4.17,1.87-4.17,4.17Z"/>
      <path class="cls-4" d="M163.49,95.62h0s-.06,103.89-.06,103.89c0,.84-.69,1.53-1.53,1.53s-1.53-.69-1.53-1.53h0s.06-103.89.06-103.89c0-.84.69-1.53,1.53-1.53s1.53.69,1.53,1.53Z"/>
      <path class="cls-4" d="M144.2,123.88l-.04,75.62c0,.85-.69,1.53-1.53,1.53s-1.53-.69-1.53-1.53h0l.04-74.91-14-28.63.02-35.4c0-.84.69-1.53,1.53-1.53s1.53.68,1.53,1.53h0s-.02,34.69-.02,34.69l14,28.62Z"/>
    </g>
  </g>
  <g>
    <path class="cls-4" d="M189.57,236.13h0s.03,54.55.03,54.55l21.04,27.02.04,62.61c0,.84.68,1.53,1.53,1.53.84,0,1.53-.69,1.53-1.53h0s-.04-63.66-.04-63.66l-21.04-27.02-.03-53.5c0-.84-.68-1.53-1.53-1.53-.84,0-1.53.68-1.53,1.53Z"/>
    <path class="cls-4" d="M212.21,378.78c1.93,0,3.74.75,5.11,2.11,1.37,1.36,2.12,3.18,2.12,5.1,0,3.98-3.24,7.22-7.22,7.23-3.99,0-7.23-3.24-7.23-7.22s3.24-7.22,7.22-7.22ZM215.16,383.06c-.79-.79-1.83-1.22-2.95-1.22-2.3,0-4.17,1.87-4.17,4.16,0,2.3,1.87,4.17,4.17,4.17,2.3,0,4.16-1.88,4.16-4.17,0-1.11-.43-2.15-1.22-2.94Z"/>
    <path class="cls-4" d="M171.31,396.05c1.36-1.36,3.18-2.11,5.1-2.11,1.93,0,3.75.75,5.11,2.11,1.37,1.36,2.12,3.18,2.12,5.11,0,3.98-3.24,7.22-7.22,7.22-3.98,0-7.22-3.24-7.22-7.22h0c0-1.94.75-3.75,2.12-5.11ZM179.36,398.21c-.79-.79-1.83-1.22-2.95-1.22-1.11,0-2.15.43-2.94,1.22-.79.79-1.22,1.83-1.22,2.94h0c0,2.3,1.87,4.17,4.17,4.17s4.16-1.87,4.16-4.17c0-1.11-.43-2.15-1.22-2.94Z"/>
    <path class="cls-4" d="M174.83,291.58h0s.06,103.89.06,103.89c0,.85.69,1.53,1.53,1.53.84,0,1.53-.68,1.53-1.53h0s-.06-103.89-.06-103.89c0-.84-.68-1.53-1.53-1.53-.85,0-1.53.69-1.53,1.53Z"/>
    <path class="cls-4" d="M141.59,400.81l.02,35.4c0,.84.69,1.53,1.53,1.53.84,0,1.53-.69,1.53-1.53h0s-.02-34.69-.02-34.69l14-28.63-.04-75.62c0-.85-.69-1.53-1.53-1.53-.84,0-1.53.68-1.53,1.53h0s.04,74.91.04,74.91l-14.01,28.63Z"/>
    <g>
      <path class="cls-4" d="M56.42,441.43c0,.84.68,1.53,1.53,1.53.85,0,1.53-.68,1.53-1.53l.04-62.61,21.04-27.02.03-54.55h0c0-.85-.68-1.53-1.53-1.53-.85,0-1.53.68-1.53,1.53l-.03,53.5-21.04,27.02-.04,63.66h0Z"/>
      <path class="cls-4" d="M50.73,447.12c0-1.93.75-3.74,2.12-5.1,1.36-1.36,3.18-2.12,5.1-2.11,3.98,0,7.22,3.24,7.22,7.22s-3.24,7.22-7.23,7.22c-3.98,0-7.21-3.25-7.21-7.22h0ZM57.95,442.96c-1.11,0-2.16.43-2.94,1.22-.79.78-1.22,1.83-1.22,2.94h-1.53s1.53,0,1.53,0c0,2.29,1.87,4.16,4.16,4.16,2.3,0,4.17-1.87,4.17-4.16s-1.87-4.16-4.17-4.16Z"/>
      <path class="cls-4" d="M86.52,406.84c0-1.93.75-3.74,2.12-5.1,1.36-1.36,3.18-2.11,5.11-2.11,3.98,0,7.22,3.24,7.22,7.22s-3.24,7.22-7.22,7.22-7.22-3.24-7.22-7.22h0ZM93.75,402.68c-1.11,0-2.16.43-2.95,1.22-.79.78-1.22,1.83-1.22,2.94h-1.53s1.53,0,1.53,0c0,2.29,1.87,4.16,4.17,4.16s4.16-1.87,4.16-4.17c0-2.29-1.87-4.16-4.16-4.16Z"/>
      <path class="cls-4" d="M121.91,436.36c1.36-1.36,3.18-2.11,5.11-2.11,3.98,0,7.22,3.25,7.22,7.23,0,3.98-3.25,7.22-7.23,7.22-3.98,0-7.22-3.24-7.22-7.22,0-1.93.75-3.75,2.12-5.11ZM127.02,437.3c-1.11,0-2.16.43-2.94,1.22-.79.79-1.22,1.83-1.22,2.95,0,2.29,1.87,4.16,4.16,4.16s4.17-1.87,4.17-4.16c0-2.29-1.87-4.16-4.17-4.17Z"/>
      <path class="cls-4" d="M92.22,401.15c0,.84.68,1.53,1.53,1.53.85,0,1.53-.68,1.53-1.53l.06-103.89h0c0-.84-.68-1.53-1.53-1.53-.85,0-1.53.68-1.53,1.53l-.06,103.89h0Z"/>
      <path class="cls-4" d="M111.51,372.9l14,28.63-.02,34.69h0c0,.84.68,1.53,1.53,1.53.84,0,1.53-.68,1.53-1.53l.02-35.4-14-28.63.04-74.91h0c0-.84-.68-1.53-1.53-1.53-.84,0-1.53.68-1.53,1.53l-.04,75.62Z"/>
    </g>
    <path class="cls-4" d="M144.28,435.63c1.56,0,3.02.6,4.13,1.7,1.1,1.1,1.71,2.57,1.71,4.13,0,3.22-2.62,5.83-5.83,5.83-3.22,0-5.84-2.62-5.84-5.83h0c0-3.21,2.62-5.83,5.83-5.83ZM146.66,439.09c-.64-.63-1.48-.98-2.38-.98-1.86,0-3.37,1.51-3.37,3.37,0,1.85,1.51,3.36,3.37,3.36s3.36-1.51,3.36-3.36c0-.9-.35-1.75-.99-2.38Z"/>
  </g>
  <g>
    <path class="cls-4" d="M168.48,222.79h-4.39l-3.9,2.48,2.51.89s8.75,39.07-24.35,51.65c-28.3,9.64-41.37-9.6-41.37-9.6l-.78-2.27-1.19.76-3.79,5.96s11.15,19.08,36.84,14.21c50.4-9.56,40.41-64.08,40.41-64.08Z"/>
    <g>
      <path class="cls-5" d="M141.23,238.52s3.52,15.71-9.79,20.77c-11.38,3.88-16.63-3.86-16.63-3.86l-.53-1.55,25.33-15.93,1.62.57Z"/>
      <path class="cls-1" d="M125.33,262.38c-8.13,0-12.02-5.58-12.18-5.82l-.15-.22-1.13-3.3,27.49-17.29,3.57,1.26.24,1.08c1.35,6.02.78,18.58-11.03,23.07-2.39.82-4.67,1.22-6.82,1.22Z"/>
    </g>
    <path class="cls-4" d="M133.99,247.69c0,3.59,2.91,6.5,6.5,6.5s6.5-2.91,6.5-6.5-2.91-6.5-6.5-6.5-6.5,2.91-6.5,6.5Z"/>
    <path class="cls-3" d="M199.96,205.03s-100.76,54.85-120.1,78.24c-19.34,23.39-21.37,47.93-21.37,47.93l-2.31-2.31s1.14-34.73,18.48-54.28c17.54-19.78,59.76-52.69,123.21-72.39l2.09,2.82Z"/>
    <line class="cls-2" x1="107.81" y1="277.01" x2="117.38" y2="266.7"/>
    <line class="cls-2" x1="163.74" y1="232.46" x2="151.45" y2="237.95"/>
    <line class="cls-2" x1="148.71" y1="273.45" x2="143.08" y2="265.84"/>
    <line class="cls-2" x1="163.74" y1="252.63" x2="155.71" y2="251.76"/>
    <path class="cls-5" d="M54.74,328.94c-.59-10.15-1.07-20.3-1.4-30.46-.44-7.62-.79-15.24.19-22.84.28-2.54.63-5.08,1.21-7.61.02-.11.13-.18.25-.15.08.02.14.08.15.15.57,2.54.93,5.08,1.21,7.61.98,7.61.64,15.22.19,22.84-.33,10.16-.81,20.31-1.4,30.46,0,.23-.39.25-.4,0h0Z"/>
    <path class="cls-5" d="M201.15,265.5c-.59-10.15-1.07-20.3-1.4-30.46-.44-7.62-.79-15.24.19-22.84.28-2.54.63-5.08,1.21-7.61.02-.11.13-.18.25-.15.08.02.14.08.15.15.57,2.54.93,5.08,1.21,7.61.98,7.61.64,15.22.19,22.84-.33,10.16-.81,20.31-1.4,30.46,0,.23-.39.25-.4,0h0Z"/>
    <line class="cls-2" x1="128.07" y1="281.9" x2="128.07" y2="275.62"/>
  </g>
</svg>