<?xml version="1.0" encoding="UTF-8"?>
<svg id="Layer_1" data-name="Layer 1" xmlns="http://www.w3.org/2000/svg" viewBox="0 0 184.16 412.91">
  <defs>
    <style>
      .cls-1 {
        fill: none;
      }

      .cls-1, .cls-2, .cls-3, .cls-4 {
        stroke: #fff;
      }

      .cls-1, .cls-4 {
        stroke-miterlimit: 10;
      }

      .cls-2, .cls-3 {
        stroke-linecap: round;
        stroke-linejoin: round;
      }

      .cls-2, .cls-3, .cls-5, .cls-4 {
        fill: #fff;
      }

      .cls-3 {
        stroke-width: 3px;
      }

      .cls-5 {
        stroke-width: 0px;
      }
    </style>
  </defs>
  <g>
    <path class="cls-4" d="M30.36,212.94c0,.84-.68,1.53-1.53,1.53s-1.53-.68-1.53-1.53l-.03-53.5-21.04-27.02-.04-63.65h0c0-.85.68-1.53,1.53-1.53s1.53.68,1.53,1.53l.04,62.6,21.04,27.02.03,54.55h0Z"/>
    <path class="cls-4" d="M14.95,63.07c0,3.99-3.24,7.23-7.22,7.23s-7.23-3.24-7.23-7.22,3.24-7.22,7.22-7.23c3.99,0,7.23,3.24,7.23,7.22ZM3.56,63.08c0,2.3,1.87,4.16,4.17,4.16s4.17-1.87,4.17-4.17-1.87-4.16-4.17-4.16c-2.29,0-4.16,1.87-4.16,4.17Z"/>
    <path class="cls-4" d="M50.74,63.92h0c0,3.99-3.24,7.22-7.22,7.22s-7.23-3.24-7.23-7.21,3.24-7.23,7.22-7.23,7.22,3.24,7.22,7.22ZM39.36,63.93c0,2.3,1.87,4.16,4.17,4.16s4.16-1.86,4.16-4.16h1.53-1.53c0-2.3-1.87-4.17-4.17-4.17s-4.16,1.87-4.16,4.17Z"/>
    <path class="cls-4" d="M82.23,13.38h0c0,2.99-2.44,5.43-5.43,5.43-1.45,0-2.81-.56-3.84-1.59-1.03-1.03-1.59-2.39-1.59-3.85,0-3,2.44-5.43,5.43-5.43s5.43,2.44,5.44,5.43ZM73.66,13.38c0,.84.33,1.63.92,2.22.59.59,1.38.91,2.21.91,1.73,0,3.14-1.41,3.14-3.13,0-1.73-1.41-3.13-3.14-3.13s-3.13,1.4-3.13,3.13Z"/>
    <path class="cls-4" d="M45.11,173.5c0,.84-.68,1.53-1.53,1.53s-1.53-.68-1.53-1.53l-.06-103.88h0c0-.85.68-1.53,1.53-1.53s1.53.68,1.53,1.53l.06,103.88h0Z"/>
    <path class="cls-4" d="M78.35,54.03l-14.01,28.63.04,74.91h0c0,.84-.68,1.53-1.53,1.53s-1.53-.68-1.53-1.53l-.04-75.62,14-28.62-.02-34.69h0c0-.85.68-1.53,1.53-1.53s1.53.68,1.53,1.53l.02,35.4Z"/>
    <g>
      <path class="cls-4" d="M163.51,13.42h0s-.04,63.65-.04,63.65l-21.04,27.02-.03,53.5c0,.84-.68,1.53-1.53,1.53s-1.53-.69-1.53-1.53h0s.03-54.55.03-54.55l21.04-27.02.04-62.6c0-.84.69-1.53,1.53-1.53s1.53.69,1.53,1.53Z"/>
      <path class="cls-4" d="M169.21,7.72h0c0,3.99-3.24,7.23-7.22,7.23s-7.22-3.24-7.22-7.22,3.24-7.22,7.23-7.22c3.98,0,7.22,3.25,7.22,7.22ZM157.82,7.72c0,2.3,1.87,4.17,4.16,4.17s4.17-1.87,4.17-4.16h0c0-2.3-1.87-4.16-4.16-4.17-2.3,0-4.17,1.87-4.17,4.16Z"/>
      <path class="cls-4" d="M133.41,48h0c0,3.99-3.24,7.22-7.23,7.22s-7.22-3.24-7.22-7.22,3.24-7.23,7.22-7.23c1.93,0,3.74.75,5.11,2.12,1.37,1.36,2.12,3.18,2.12,5.1ZM122.02,48c0,2.3,1.87,4.16,4.16,4.16s4.17-1.86,4.17-4.15h0c0-1.12-.43-2.17-1.22-2.95-.79-.79-1.83-1.22-2.95-1.22-2.29,0-4.16,1.87-4.16,4.16Z"/>
      <path class="cls-4" d="M100.14,13.38c0,1.93-.75,3.75-2.12,5.11-1.36,1.36-3.18,2.11-5.11,2.11-3.98,0-7.22-3.25-7.22-7.22,0-3.98,3.25-7.22,7.23-7.22s7.22,3.24,7.22,7.22ZM88.75,13.38c0,2.29,1.87,4.16,4.17,4.16,1.11,0,2.15-.43,2.94-1.21.79-.79,1.22-1.84,1.22-2.95,0-2.3-1.87-4.16-4.16-4.16s-4.17,1.87-4.17,4.17Z"/>
      <path class="cls-4" d="M127.72,53.69h0s-.06,103.89-.06,103.89c0,.84-.69,1.53-1.53,1.53s-1.53-.69-1.53-1.53h0s.06-103.89.06-103.89c0-.84.69-1.53,1.53-1.53s1.53.69,1.53,1.53Z"/>
      <path class="cls-4" d="M108.42,81.95l-.04,75.62c0,.85-.69,1.53-1.53,1.53s-1.53-.69-1.53-1.53h0l.04-74.91-14-28.63.02-35.4c0-.84.69-1.53,1.53-1.53s1.53.68,1.53,1.53h0s-.02,34.69-.02,34.69l14,28.62Z"/>
    </g>
  </g>
  <g>
    <path class="cls-4" d="M153.8,194.2h0s.03,54.55.03,54.55l21.04,27.02.04,62.61c0,.84.68,1.53,1.53,1.53.84,0,1.53-.69,1.53-1.53h0s-.04-63.66-.04-63.66l-21.04-27.02-.03-53.5c0-.84-.68-1.53-1.53-1.53-.84,0-1.53.68-1.53,1.53Z"/>
    <path class="cls-4" d="M176.43,336.85c1.93,0,3.74.75,5.11,2.11,1.37,1.36,2.12,3.18,2.12,5.1,0,3.98-3.24,7.22-7.22,7.23-3.99,0-7.23-3.24-7.23-7.22s3.24-7.22,7.22-7.22ZM179.38,341.12c-.79-.79-1.83-1.22-2.95-1.22-2.3,0-4.17,1.87-4.17,4.16,0,2.3,1.87,4.17,4.17,4.17,2.3,0,4.16-1.88,4.16-4.17,0-1.11-.43-2.15-1.22-2.94Z"/>
    <path class="cls-4" d="M135.53,354.11c1.36-1.36,3.18-2.11,5.1-2.11,1.93,0,3.75.75,5.11,2.11,1.37,1.36,2.12,3.18,2.12,5.11,0,3.98-3.24,7.22-7.22,7.22-3.98,0-7.22-3.24-7.22-7.22h0c0-1.94.75-3.75,2.12-5.11ZM143.58,356.28c-.79-.79-1.83-1.22-2.95-1.22-1.11,0-2.15.43-2.94,1.22-.79.79-1.22,1.83-1.22,2.94h0c0,2.3,1.87,4.17,4.17,4.17s4.16-1.87,4.16-4.17c0-1.11-.43-2.15-1.22-2.94Z"/>
    <path class="cls-4" d="M139.05,249.64h0s.06,103.89.06,103.89c0,.85.69,1.53,1.53,1.53.84,0,1.53-.68,1.53-1.53h0s-.06-103.89-.06-103.89c0-.84-.68-1.53-1.53-1.53-.85,0-1.53.69-1.53,1.53Z"/>
    <path class="cls-4" d="M105.81,358.88l.02,35.4c0,.84.69,1.53,1.53,1.53.84,0,1.53-.69,1.53-1.53h0s-.02-34.69-.02-34.69l14-28.63-.04-75.62c0-.85-.69-1.53-1.53-1.53-.84,0-1.53.68-1.53,1.53h0s.04,74.91.04,74.91l-14.01,28.63Z"/>
    <g>
      <path class="cls-4" d="M20.64,399.5c0,.84.68,1.53,1.53,1.53.85,0,1.53-.68,1.53-1.53l.04-62.61,21.04-27.02.03-54.55h0c0-.85-.68-1.53-1.53-1.53-.85,0-1.53.68-1.53,1.53l-.03,53.5-21.04,27.02-.04,63.66h0Z"/>
      <path class="cls-4" d="M14.95,405.19c0-1.93.75-3.74,2.12-5.1,1.36-1.36,3.18-2.12,5.1-2.11,3.98,0,7.22,3.24,7.22,7.22s-3.24,7.22-7.23,7.22c-3.98,0-7.21-3.25-7.21-7.22h0ZM22.17,401.03c-1.11,0-2.16.43-2.94,1.22-.79.78-1.22,1.83-1.22,2.94h-1.53s1.53,0,1.53,0c0,2.29,1.87,4.16,4.16,4.16,2.3,0,4.17-1.87,4.17-4.16s-1.87-4.16-4.17-4.16Z"/>
      <path class="cls-4" d="M50.74,364.91c0-1.93.75-3.74,2.12-5.1,1.36-1.36,3.18-2.11,5.11-2.11,3.98,0,7.22,3.24,7.22,7.22s-3.24,7.22-7.22,7.22c-3.98,0-7.22-3.24-7.22-7.22h0ZM57.97,360.75c-1.11,0-2.16.43-2.95,1.22-.79.78-1.22,1.83-1.22,2.94h-1.53s1.53,0,1.53,0c0,2.29,1.87,4.16,4.17,4.16s4.16-1.87,4.16-4.17c0-2.29-1.87-4.16-4.16-4.16Z"/>
      <path class="cls-4" d="M86.14,394.42c1.36-1.36,3.18-2.11,5.11-2.11,3.98,0,7.22,3.25,7.22,7.23,0,3.98-3.25,7.22-7.23,7.22s-7.22-3.24-7.22-7.22c0-1.93.75-3.75,2.12-5.11ZM91.24,395.37c-1.11,0-2.16.43-2.94,1.22-.79.79-1.22,1.83-1.22,2.95,0,2.29,1.87,4.16,4.16,4.16s4.17-1.87,4.17-4.16c0-2.29-1.87-4.16-4.17-4.17Z"/>
      <path class="cls-4" d="M56.44,359.22c0,.84.68,1.53,1.53,1.53.85,0,1.53-.68,1.53-1.53l.06-103.89h0c0-.84-.68-1.53-1.53-1.53-.85,0-1.53.68-1.53,1.53l-.06,103.89h0Z"/>
      <path class="cls-4" d="M75.73,330.96l14,28.63-.02,34.69h0c0,.84.68,1.53,1.53,1.53.84,0,1.53-.68,1.53-1.53l.02-35.4-14-28.63.04-74.91h0c0-.84-.68-1.53-1.53-1.53-.84,0-1.53.68-1.53,1.53l-.04,75.62Z"/>
    </g>
    <path class="cls-4" d="M108.51,393.7c1.56,0,3.02.6,4.13,1.7,1.1,1.1,1.71,2.57,1.71,4.13,0,3.22-2.62,5.83-5.83,5.83-3.22,0-5.84-2.62-5.84-5.83h0c0-3.21,2.62-5.83,5.83-5.83ZM110.88,397.15c-.64-.63-1.48-.98-2.38-.98-1.86,0-3.37,1.51-3.37,3.37,0,1.85,1.51,3.36,3.37,3.36s3.36-1.51,3.36-3.36c0-.9-.35-1.75-.99-2.38Z"/>
  </g>
  <path class="cls-4" d="M135.95,175.24h-4.39l-3.9,2.48,2.51.89s8.75,39.07-24.35,51.65c-28.3,9.64-41.37-9.6-41.37-9.6l-.78-2.27-1.19.76-3.79,5.96s11.15,19.08,36.84,14.21c50.4-9.56,40.41-64.08,40.41-64.08Z"/>
  <g>
    <path class="cls-5" d="M108.7,190.96s3.52,15.71-9.79,20.77c-11.38,3.88-16.63-3.86-16.63-3.86l-.53-1.55,25.33-15.93,1.62.57Z"/>
    <path class="cls-1" d="M92.8,214.82c-8.13,0-12.02-5.59-12.18-5.82l-.15-.22-1.13-3.3,27.49-17.29,3.57,1.27.24,1.08c1.35,6.02.78,18.58-11.03,23.07-2.39.82-4.67,1.22-6.82,1.22Z"/>
  </g>
  <path class="cls-3" d="M167.43,157.47s-100.76,54.85-120.1,78.24c-19.34,23.39-21.37,47.93-21.37,47.93l-2.31-2.31s1.14-34.73,18.48-54.28c17.54-19.78,59.76-52.69,123.21-72.39l2.09,2.82Z"/>
  <line class="cls-2" x1="75.28" y1="229.45" x2="84.86" y2="219.15"/>
  <line class="cls-2" x1="131.21" y1="184.9" x2="118.92" y2="190.39"/>
  <line class="cls-2" x1="116.18" y1="225.9" x2="110.55" y2="218.28"/>
  <line class="cls-2" x1="131.21" y1="205.07" x2="123.18" y2="204.2"/>
  <path class="cls-5" d="M22.21,281.38c-.59-10.15-1.07-20.3-1.4-30.46-.44-7.62-.79-15.24.19-22.84.28-2.54.63-5.08,1.21-7.61.02-.11.13-.18.25-.15.08.02.14.08.15.15.57,2.54.93,5.08,1.21,7.61.98,7.61.64,15.22.19,22.84-.33,10.16-.81,20.31-1.4,30.46,0,.23-.39.25-.4,0h0Z"/>
  <path class="cls-5" d="M168.62,217.94c-.59-10.15-1.07-20.3-1.4-30.46-.44-7.62-.79-15.24.19-22.84.28-2.54.63-5.08,1.21-7.61.02-.11.13-.18.25-.15.08.02.14.08.15.15.57,2.54.93,5.08,1.21,7.61.98,7.61.64,15.22.19,22.84-.33,10.16-.81,20.31-1.4,30.46,0,.23-.39.25-.4,0h0Z"/>
  <line class="cls-2" x1="95.54" y1="234.34" x2="95.54" y2="228.06"/>
</svg>